<?xml version="1.0" encoding="UTF-8" standalone="no"?>
<svg
   width="182"
   height="140"
   version="1.1"
   id="svg3968"
   sodipodi:docname="mailboxes.svg"
   inkscape:version="1.2.2 (b0a8486541, 2022-12-01)"
   xmlns:inkscape="http://www.inkscape.org/namespaces/inkscape"
   xmlns:sodipodi="http://sodipodi.sourceforge.net/DTD/sodipodi-0.dtd"
   xmlns="http://www.w3.org/2000/svg"
   xmlns:svg="http://www.w3.org/2000/svg">
  <defs
     id="defs3972" />
  <sodipodi:namedview
     id="namedview3970"
     pagecolor="#ffffff"
     bordercolor="#000000"
     borderopacity="0.25"
     inkscape:showpageshadow="2"
     inkscape:pageopacity="0.0"
     inkscape:pagecheckerboard="0"
     inkscape:deskcolor="#d1d1d1"
     showgrid="false"
     inkscape:zoom="7.3357143"
     inkscape:cx="91.129503"
     inkscape:cy="70.06816"
     inkscape:window-width="2560"
     inkscape:window-height="1371"
     inkscape:window-x="0"
     inkscape:window-y="32"
     inkscape:window-maximized="1"
     inkscape:current-layer="svg3968" />
  <g
     id="g5861">
    <path
       stroke="#000000"
       stroke-width="0.225981"
       fill="#ffffff"
       d="m 88.076669,29.547659 -2.374423,-2.010222 -0.619838,-4.510159 c 0,0 8.536087,-3.093016 10.282458,-2.296754 1.746372,0.796186 1.624814,2.067278 1.624814,2.067278 l -0.01601,3.751618 z"
       id="imagebot_14" />
    <path
       fill-rule="evenodd"
       stroke="#000000"
       stroke-width="0.221264"
       fill="#ffffff"
       d="m 84.550291,27.675738 v -3.786784 c 0,0 -0.08192,-1.465309 1.749831,-0.63157 1.832732,0.833739 1.710347,2.173246 1.710347,2.173246 v 3.952455 z"
       id="imagebot_13" />
    <path
       stroke="#000000"
       stroke-width="0.145642"
       fill="none"
       d="m 87.845445,24.793104 -1.792018,0.593967 1.106735,1.921775 0.842881,-0.419352 z"
       id="imagebot_11" />
    <path
       d="m 87.88468,25.552091 -1.322828,0.524717 0.817588,1.697646 0.622638,-0.370079 z"
       fill-rule="evenodd"
       stroke="#000000"
       stroke-width="0.188695"
       fill="#ffffff"
       id="imagebot_10" />
    <path
       fill-rule="evenodd"
       stroke="#000000"
       stroke-width="0.301912"
       fill="#ffffff"
       d="m 84.54766,28.019969 -1.584393,-3.158061 c 0,0 -0.635412,-1.149191 1.06979,-0.384157 1.704273,0.765049 2.136795,1.803344 2.136795,1.803344 l 1.546578,3.085986 z"
       id="imagebot_9" />
    <path
       fill-rule="evenodd"
       fill="#000000"
       d="m 84.635797,26.92537 c 0,0 0.08125,0.55641 0.564967,0.680081 0.483711,0.123671 0.967422,-0.123671 0.967422,-0.123671 0,0 -0.403411,0 -0.887123,-0.18547 -0.483711,-0.18547 -0.483711,-0.37094 -0.645266,-0.37094 z"
       id="imagebot_8"
       style="stroke-width:0.0837133" />
    <line
       id="imagebot_7"
       y2="26.308613"
       x2="87.961815"
       y1="26.170355"
       x1="86.632164"
       fill-opacity="null"
       stroke-opacity="null"
       stroke-linecap="null"
       stroke-linejoin="null"
       stroke-dasharray="none"
       stroke-width="0.183617"
       stroke="#000000"
       fill="none" />
    <line
       id="imagebot_6"
       y2="25.552446"
       x2="87.873817"
       y1="25.351305"
       x1="86.144844"
       fill-opacity="null"
       stroke-opacity="null"
       stroke-linecap="null"
       stroke-linejoin="null"
       stroke-dasharray="none"
       stroke-width="0.179269"
       stroke="#000000"
       fill="none" />
    <line
       id="imagebot_5"
       y2="27.475388"
       x2="87.16906"
       y1="27.594589"
       x1="86.884872"
       stroke-opacity="null"
       stroke-linecap="null"
       stroke-linejoin="null"
       stroke-dasharray="none"
       stroke="#000000"
       fill="none"
       style="stroke-width:0.0338096" />
    <path
       fill-rule="evenodd"
       stroke="#000000"
       stroke-width="0.0421048px"
       fill="#000000"
       d="m 89.593542,25.642745 -0.432704,-4.788384 2.144772,-0.503328 0.178175,1.97171 -1.691553,0.49957 0.26302,2.910636 c 0,0 -0.07799,0.815097 -0.46171,-0.0902 z"
       id="imagebot_12-1-7" />
  </g>
  <g
     id="g10175">
    <path
       stroke="#000000"
       stroke-width="0.225981"
       fill="#ffffff"
       d="m 88.965968,78.023755 -2.374423,-2.010222 -0.619838,-4.510159 c 0,0 8.536087,-3.093016 10.282458,-2.296754 1.746372,0.796186 1.624814,2.067278 1.624814,2.067278 l -0.01601,3.751618 z"
       id="imagebot_14-20" />
    <path
       fill-rule="evenodd"
       stroke="#000000"
       stroke-width="0.221264"
       fill="#ffffff"
       d="M 85.43959,76.151834 V 72.36505 c 0,0 -0.08192,-1.465309 1.749831,-0.63157 1.832732,0.833739 1.710347,2.173246 1.710347,2.173246 v 3.952455 z"
       id="imagebot_13-2" />
    <path
       fill-rule="evenodd"
       stroke="#000000"
       stroke-width="0.301912"
       fill="#ffffff"
       d="m 85.436959,76.496065 -1.584393,-3.158061 c 0,0 -0.635412,-1.149191 1.06979,-0.384157 1.704273,0.765049 2.136795,1.803344 2.136795,1.803344 l 1.546578,3.085986 z"
       id="imagebot_9-5" />
    <path
       fill-rule="evenodd"
       fill="#000000"
       d="m 85.525096,75.401466 c 0,0 0.08125,0.55641 0.564967,0.680081 0.483711,0.123671 0.967422,-0.123671 0.967422,-0.123671 0,0 -0.403411,0 -0.887123,-0.18547 -0.483711,-0.18547 -0.483711,-0.37094 -0.645266,-0.37094 z"
       id="imagebot_8-9"
       style="stroke-width:0.0837133" />
    <path
       fill-rule="evenodd"
       stroke="#000000"
       stroke-width="0.0421048px"
       fill="#000000"
       d="m 90.26739,73.988453 4.612788,-1.355745 0.910858,2.005922 -1.899405,0.558255 -0.819024,-1.562089 -2.803899,0.824094 c 0,0 -0.814701,0.08203 -0.0013,-0.470436 z"
       id="imagebot_12-1-7-9" />
  </g>
  <metadata
     id="metadata3966">image/svg+xmlOpenclipartMailbox 3 icon2006-12-26T00:00:00https://openclipart.org/detail/24649/-by--24649Anonymous</metadata>
  <g
     id="g5849">
    <path
       fill-rule="evenodd"
       fill="#000000"
       d="m 65.858902,54.191563 c 0,0 0.08125,0.55641 0.564967,0.680081 0.483711,0.123671 0.967422,-0.123671 0.967422,-0.123671 0,0 -0.403411,0 -0.887123,-0.18547 -0.483711,-0.18547 -0.483711,-0.37094 -0.645266,-0.37094 z"
       id="imagebot_8-1"
       style="stroke-width:0.0837133" />
    <path
       fill-rule="evenodd"
       fill="#000000"
       d="m 66.21788,54.024858 c 0,0 0.08125,0.55641 0.564967,0.680081 0.483711,0.123671 0.967422,-0.123671 0.967422,-0.123671 0,0 -0.403411,0 -0.887123,-0.18547 -0.483711,-0.18547 -0.483711,-0.37094 -0.645266,-0.37094 z"
       id="imagebot_8-6"
       style="stroke-width:0.0837133" />
    <path
       fill-rule="evenodd"
       fill="#000000"
       d="m 65.87214,53.900037 c 0,0 0.06441,0.856724 0.447903,1.047144 0.383484,0.190421 0.766968,-0.19042 0.766968,-0.19042 0,0 -0.319823,0 -0.703307,-0.285575 C 66.00022,54.185612 66.00022,53.900037 65.87214,53.900037 Z"
       id="imagebot_8-2"
       style="stroke-width:0.0924907" />
    <path
       stroke="#000000"
       stroke-width="0.225981"
       fill="#ffffff"
       d="m 68.655478,57.22351 -2.374423,-2.010222 -0.619838,-4.510159 c 0,0 8.536087,-3.093016 10.282458,-2.296754 1.746372,0.796186 1.624814,2.067278 1.624814,2.067278 l -0.01601,3.751618 z"
       id="imagebot_14-2" />
    <path
       fill-rule="evenodd"
       stroke="#000000"
       stroke-width="0.221264"
       fill="#ffffff"
       d="m 65.1291,55.351589 v -3.786784 c 0,0 -0.08192,-1.465309 1.749831,-0.63157 1.832732,0.833739 1.710347,2.173246 1.710347,2.173246 v 3.952455 z"
       id="imagebot_13-9" />
    <path
       fill-rule="evenodd"
       stroke="#000000"
       stroke-width="0.0421048px"
       fill="#000000"
       d="m 70.099078,53.36423 4.616569,-1.342814 0.905234,2.008467 -1.900962,0.55293 -0.814644,-1.564378 -2.806197,0.816234 c 0,0 -0.814927,0.07975 0,-0.470439 z"
       id="imagebot_12-1" />
    <path
       fill-rule="evenodd"
       fill="#000000"
       d="m 66.0199,54.077705 c 0,0 0.08125,0.55641 0.564967,0.680081 0.483711,0.123671 0.967422,-0.123671 0.967422,-0.123671 0,0 -0.403411,0 -0.887123,-0.18547 -0.483711,-0.18547 -0.483711,-0.37094 -0.645266,-0.37094 z"
       id="imagebot_8-8"
       style="stroke-width:0.0837133" />
  </g>
</svg>
